<?xml version="1.0" encoding="UTF-8" standalone="no"?>
<!-- Svg Vector Icons : http://www.onlinewebfonts.com/icon -->

<svg
   xmlns:dc="http://purl.org/dc/elements/1.1/"
   xmlns:cc="http://creativecommons.org/ns#"
   xmlns:rdf="http://www.w3.org/1999/02/22-rdf-syntax-ns#"
   xmlns:svg="http://www.w3.org/2000/svg"
   xmlns="http://www.w3.org/2000/svg"
   xmlns:sodipodi="http://sodipodi.sourceforge.net/DTD/sodipodi-0.dtd"
   xmlns:inkscape="http://www.inkscape.org/namespaces/inkscape"
   version="1.1"
   x="0px"
   y="0px"
   viewBox="0 0 1000 1000"
   enable-background="new 0 0 1000 1000"
   xml:space="preserve"
   id="svg18"
   sodipodi:docname="c447d4345df88657f34505832a8910e4.svg"
   inkscape:version="0.92.4 (5da689c313, 2019-01-14)"><defs
   id="defs22" /><sodipodi:namedview
   pagecolor="#ffffff"
   bordercolor="#666666"
   borderopacity="1"
   objecttolerance="10"
   gridtolerance="10"
   guidetolerance="10"
   inkscape:pageopacity="0"
   inkscape:pageshadow="2"
   inkscape:window-width="1440"
   inkscape:window-height="878"
   id="namedview20"
   showgrid="false"
   inkscape:zoom="16"
   inkscape:cx="951.97479"
   inkscape:cy="677.81538"
   inkscape:window-x="1358"
   inkscape:window-y="-8"
   inkscape:window-maximized="1"
   inkscape:current-layer="svg18" />
<metadata
   id="metadata2"> Svg Vector Icons : http://www.onlinewebfonts.com/icon <rdf:RDF><cc:Work
     rdf:about=""><dc:format>image/svg+xml</dc:format><dc:type
       rdf:resource="http://purl.org/dc/dcmitype/StillImage" /></cc:Work></rdf:RDF></metadata>
<g
   id="g16"><path
     d="M470.1,186.1H990v119.1H470.1V186.1L470.1,186.1z"
     id="path4" /><path
     d="M470.1,440.5H990v119.1H470.1V440.5L470.1,440.5z"
     id="path6" /><path
     d="M470.1,694.8H990v119.1H470.1V694.8L470.1,694.8z"
     id="path8" /><path
     d="M10,218.7l56.8-56.8l81.2,81.2l123.1-123.1l54.3,54.3L146.9,352.9L10,218.7z"
     id="path10" /><path
     d="M10,482.3l56.8-56.8l81.2,81.2l123.1-123.1l54.3,54.3L146.9,616.5L10,482.3z"
     id="path12" /><path
     d="M10,745.9l56.8-56.8l81.2,81.2l123.1-123.1l54.3,54.3L146.9,880.1L10,745.9z"
     id="path14" /></g>
<path
   style="fill:#ffffff;stroke-width:1.49810755"
   d="m 79.004707,548.88066 -67.77611,-66.26659 28.067144,-28.09633 28.067145,-28.09634 40.452954,40.45296 40.45296,40.45296 61.43862,-61.42525 61.43863,-61.42525 26.57502,26.60583 26.57502,26.60582 -88.75763,88.72939 -88.75764,88.72938 z"
   id="path24"
   inkscape:connector-curvature="0" /><path
   style="fill:#ffffff;stroke-width:1.49810755"
   d="m 471.12111,499.84003 v -58.4262 h 259.17261 259.17262 v 58.4262 58.4262 H 730.29372 471.12111 Z"
   id="path26"
   inkscape:connector-curvature="0" /><path
   style="fill:#ffffff;stroke-width:1.49810755"
   d="m 471.12111,245.91079 v -59.17525 h 259.17261 259.17262 v 59.17525 59.17525 H 730.29372 471.12111 Z"
   id="path28"
   inkscape:connector-curvature="0" /><path
   style="fill:#ffffff;stroke-width:1.49810755"
   d="M 78.98237,285.24255 11.183925,218.973 l 27.721362,-27.72136 27.721361,-27.72136 40.453432,40.43261 40.45343,40.43262 61.80627,-61.79281 61.80627,-61.79281 26.57502,26.60582 26.57502,26.60583 -88.75763,88.74528 -88.75764,88.74528 z"
   id="path30"
   inkscape:connector-curvature="0" /><path
   style="fill:#ffffff;stroke-width:1.49810755"
   d="m 471.12111,754.51832 v -58.4262 h 259.17261 259.17262 v 58.4262 58.4262 H 730.29372 471.12111 Z"
   id="path32"
   inkscape:connector-curvature="0" /><path
   style="fill:#ffffff;stroke-width:1.49810755"
   d="m 79.022813,812.52272 -67.758003,-66.24399 28.049039,-28.0952 28.049037,-28.09519 40.452954,40.45295 40.45296,40.45296 61.43862,-61.42525 61.43863,-61.42524 26.57502,26.60582 26.57502,26.60583 -88.75763,88.70566 -88.75764,88.70566 z"
   id="path34"
   inkscape:connector-curvature="0" /><path
   style="fill:#ffffff;stroke-width:0.03310381"
   d="m 523.08144,558.93435 v -0.66208 h 34.44452 34.44452 v 0.66208 0.66207 h -34.44452 -34.44452 z"
   id="path36"
   inkscape:connector-curvature="0" /><path
   style="fill:#ffffff;stroke-width:0.13241525"
   d="m 591.98433,558.92645 v -0.59587 h 58.65996 58.65995 v 0.59587 0.59587 h -58.65995 -58.65996 z"
   id="path38"
   inkscape:connector-curvature="0" /><path
   style="fill:#ffffff;stroke-width:0.13241525"
   d="m 470.1623,517.08323 v -42.43909 h 0.46345 0.46345 v 41.84322 41.84322 h 25.95339 25.95339 v 0.59587 0.59587 H 496.57914 470.1623 Z"
   id="path40"
   inkscape:connector-curvature="0" /><path
   style="fill:#ffffff;stroke-width:0.13241525"
   d="m 709.39328,558.94023 v -0.66208 h 84.2161 84.2161 v 0.66208 0.66208 h -84.2161 -84.2161 z"
   id="path42"
   inkscape:connector-curvature="0" /><path
   style="fill:#ffffff;stroke-width:0.13241525"
   d="m 877.82548,558.94023 v -0.66208 h 45.02119 45.02119 v 0.66208 0.66208 h -45.02119 -45.02119 z"
   id="path44"
   inkscape:connector-curvature="0" /><path
   style="fill:#ffffff;stroke-width:0.13241525"
   d="m 967.89888,558.93315 v -0.66208 h 10.79184 10.79185 v -33.76589 c 0,-29.92584 0.0226,-33.76589 0.19862,-33.76589 0.17605,0 0.19862,3.91361 0.19862,34.42797 v 34.42797 h -10.99046 -10.99047 z"
   id="path46"
   inkscape:connector-curvature="0" /><path
   style="fill:#ffffff;stroke-width:0.02340793"
   d="m 989.8841,529.28151 c 0,-13.54929 6e-5,-13.5649 0.0468,-13.5649 0.0468,0 0.0468,0.0156 0.0468,13.5649 0,13.54929 -6e-5,13.56489 -0.0468,13.56489 -0.0468,0 -0.0468,-0.0156 -0.0468,-13.56489 z"
   id="path48"
   inkscape:connector-curvature="0" /><path
   style="fill:#ffffff;stroke-width:0.02340793"
   d="m 989.88785,509.70663 c -0.004,-6.14779 -0.004,-6.16214 0.0431,-6.16214 0.0467,0 0.0468,0.0143 0.0431,6.16214 -0.002,3.38917 -0.008,6.1279 -0.0132,6.08606 -0.005,-0.0418 -0.0186,-0.0761 -0.0299,-0.0761 -0.0112,0 -0.0247,0.0342 -0.0299,0.0761 -0.005,0.0418 -0.0111,-2.69689 -0.0132,-6.08606 z"
   id="path50"
   inkscape:connector-curvature="0" /><path
   style="fill:#ffffff;stroke-width:0.02340793"
   d="m 989.97197,509.64811 c -0.003,-3.32481 -6.5e-4,-9.43165 0.006,-13.57075 0.0102,-6.53024 0.0125,-5.73065 0.0176,6.0451 0.003,7.46391 5.7e-4,13.57074 -0.006,13.57074 -0.006,0 -0.0143,-2.72029 -0.0176,-6.04509 z"
   id="path52"
   inkscape:connector-curvature="0" /><path
   style="fill:#ffffff;stroke-width:0.02340793"
   d="m 989.96498,500.45464 c 0,-0.50854 0.003,-0.71657 0.007,-0.46231 0.004,0.25427 0.004,0.67035 0,0.92462 -0.004,0.25427 -0.007,0.0462 -0.007,-0.46231 z"
   id="path54"
   inkscape:connector-curvature="0" /><path
   style="fill:#ffffff;stroke-width:0.02340793"
   d="m 989.96134,500.45464 c 0,-0.0708 0.004,-0.0998 0.01,-0.0644 0.005,0.0354 0.005,0.0933 0,0.12874 -0.005,0.0354 -0.01,0.006 -0.01,-0.0644 z"
   id="path56"
   inkscape:connector-curvature="0" /><path
   style="fill:#ffffff;stroke-width:0.02340793"
   d="m 989.88538,502.79543 c -0.01,-3.39834 -0.0513,-9.30974 -0.0715,-10.20585 -0.023,-1.0186 -0.0501,-1.58959 -0.0843,-1.7718 -0.0156,-0.0834 -0.068,-0.10394 -0.0898,-0.0352 -0.0664,0.20908 -0.10735,1.76411 -0.12845,4.87346 -0.0163,2.40816 -0.0175,2.29019 -0.0212,-2.27642 l -0.004,-4.81618 h 0.24941 0.24941 l -0.0171,7.48439 c -0.009,4.11641 -0.0253,7.48979 -0.0352,7.49639 -0.01,0.007 -0.0242,0.0278 -0.0315,0.0471 -0.007,0.0193 -0.0145,-0.33883 -0.0158,-0.79587 z"
   id="path58"
   inkscape:connector-curvature="0" /><path
   style="fill:#ffffff;stroke-width:0.02340793"
   d="m 989.48617,478.73208 v -9.83133 h 0.24578 0.24579 v 9.83133 9.83133 h -0.24579 -0.24578 z"
   id="path60"
   inkscape:connector-curvature="0" /><path
   style="fill:#ffffff;stroke-width:0.02340793"
   d="m 989.48617,463.28285 v -5.61791 h 0.24578 0.24579 v 5.61791 5.6179 h -0.24579 -0.24578 z"
   id="path62"
   inkscape:connector-curvature="0" /><path
   style="fill:#ffffff;stroke-width:0.02340793"
   d="m 989.48617,450.1744 v -7.49053 h 0.24578 0.24579 v 7.49053 7.49054 h -0.24579 -0.24578 z"
   id="path64"
   inkscape:connector-curvature="0" /><path
   style="fill:#ffffff;stroke-width:0.02340793"
   d="M 735.1582 440.50781 L 735.1582 440.95117 L 735.1582 441.39648 L 748.25391 441.39648 L 761.34961 441.39648 L 761.35742 440.95117 L 761.36328 440.50781 L 748.26172 440.50781 L 735.1582 440.50781 z M 761.375 440.50781 L 761.375 440.53125 L 761.375 440.95117 L 761.375 440.96289 L 761.375 441.39648 L 783.85938 441.39648 L 793.21094 441.39648 L 806.3418 441.39648 L 815.68164 441.39648 L 826.91797 441.39648 L 839.08984 441.39648 L 851.26172 441.39648 L 871.87305 441.39648 L 882.14844 441.39648 L 892.48438 441.39648 L 894.30664 441.39648 L 894.31445 440.95117 L 894.32031 440.50781 L 882.1543 440.50781 L 869.98828 440.50781 L 860.625 440.50781 L 851.26172 440.50781 L 839.08984 440.50781 L 826.91797 440.50781 L 815.68164 440.50781 L 804.44727 440.50781 L 793.21094 440.50781 L 781.97461 440.50781 L 771.67578 440.50781 L 761.375 440.50781 z M 894.33203 440.50781 L 894.33203 440.95117 L 894.33203 441.39648 L 908.37695 441.39648 L 922.42188 441.39648 L 934.59375 441.39648 L 946.76758 441.39648 L 958.00195 441.39648 L 969.23828 441.39648 L 979.36133 441.39648 L 989.48633 441.39648 L 989.48633 442.04102 L 989.48633 442.68359 L 989.73242 442.68359 L 989.97852 442.68359 L 989.97852 441.5957 L 989.97852 440.50781 L 979.60742 440.50781 L 969.23828 440.50781 L 958.00195 440.50781 L 946.76758 440.50781 L 934.59375 440.50781 L 922.42188 440.50781 L 908.37695 440.50781 L 894.33203 440.50781 z "
   id="path66" /><path
   style="fill:#ffffff;stroke-width:0.00390625"
   d="m 757.93613,441.4061 c 0,-0.008 0.003,-0.008 1.70665,-0.008 h 1.70664 l 0.002,-0.0439 c 0.001,-0.0242 0.004,-0.17666 0.006,-0.33887 0.002,-0.16221 0.005,-0.34282 0.006,-0.40137 l 0.002,-0.10644 h -1.71516 c -1.14083,0 -1.71516,-10e-4 -1.71516,-0.004 0,-0.003 1.35742,-0.004 4.06446,-0.004 2.70703,0 4.06445,10e-4 4.06445,0.004 0,0.003 -0.78451,0.004 -2.3457,0.004 h -2.34571 v 0.44531 0.44531 h 2.34571 c 2.34309,0 2.3457,10e-6 2.3457,0.008 0,0.008 -0.003,0.008 -4.06445,0.008 -4.06185,0 -4.06446,-10e-6 -4.06446,-0.008 z"
   id="path104"
   inkscape:connector-curvature="0" /><path
   style="fill:#ffffff;stroke-width:0.00390625"
   d="m 766.06231,441.40557 c -0.002,-0.005 0.26844,-0.006 2.41951,-0.006 2.15006,0 2.42175,6.6e-4 2.42175,0.006 0,0.005 -0.27144,0.006 -2.41951,0.006 -2.14706,0 -2.41975,-6.6e-4 -2.42175,-0.006 z"
   id="path106"
   inkscape:connector-curvature="0" /><path
   style="fill:#ffffff;stroke-width:0.00390625"
   d="m 762.77466,440.95245 v -0.44336 h 4.06445 4.06446 v 0.44336 0.44336 h -4.06446 -4.06445 z"
   id="path108"
   inkscape:connector-curvature="0" /><path
   style="fill:#ffffff;stroke-width:0.00390625"
   d="m 765.92376,440.50712 c 0.003,-0.003 4.9766,-0.003 4.97916,2e-5 10e-4,0.001 -1.11924,0.002 -2.48959,0.002 -1.37034,0 -2.49065,-8.9e-4 -2.48957,-0.002 z"
   id="path110"
   inkscape:connector-curvature="0" /><path
   style="fill:#ffffff;stroke-width:0.00390625"
   d="m 767.3147,440.50616 c 0.10689,-5.8e-4 0.28179,-5.8e-4 0.38867,0 0.10689,5.8e-4 0.0194,10e-4 -0.19433,10e-4 -0.21377,0 -0.30122,-4.7e-4 -0.19434,-10e-4 z"
   id="path112"
   inkscape:connector-curvature="0" /><path
   style="fill:#ffffff;stroke-width:0.00390625"
   d="m 766.20119,440.50617 c 0.0273,-6.7e-4 0.073,-6.7e-4 0.10156,0 0.0286,6.6e-4 0.006,10e-4 -0.0496,10e-4 -0.0559,0 -0.0793,-5.5e-4 -0.052,-10e-4 z"
   id="path114"
   inkscape:connector-curvature="0" /><path
   style="fill:#ffffff;stroke-width:0.00390625"
   d="m 762.77466,440.95245 v -0.44336 l 2.25293,-9.8e-4 c 1.23911,-5.4e-4 2.39092,-10e-4 2.55957,-10e-4 0.16865,-1.5e-4 0.98384,5.8e-4 1.81152,0.002 l 1.50489,0.002 v 0.44271 0.44271 h -4.06446 -4.06445 z"
   id="path116"
   inkscape:connector-curvature="0" /><path
   style="fill:#ffffff;stroke-width:0.00390625"
   d="m 766.22876,440.50619 c 0.0145,-7.5e-4 0.0382,-7.5e-4 0.0527,0 0.0145,7.5e-4 0.003,10e-4 -0.0264,10e-4 -0.029,0 -0.0409,-6.2e-4 -0.0264,-10e-4 z"
   id="path118"
   inkscape:connector-curvature="0" /><path
   style="fill:#ffffff;stroke-width:0.00390625"
   d="m 766.5022,440.50225 c 0.24224,-5.5e-4 0.63862,-5.5e-4 0.88086,0 0.24224,5.6e-4 0.044,10e-4 -0.44043,10e-4 -0.48447,0 -0.68267,-4.5e-4 -0.44043,-10e-4 z"
   id="path120"
   inkscape:connector-curvature="0" /><path
   style="fill:#ffffff;stroke-width:0.00390625"
   d="m 766.6106,441.40755 -0.5293,-0.002 0.8125,-0.003 c 0.9106,-0.003 2.53547,-0.003 3.41016,5.7e-4 l 0.57812,0.002 -0.83007,0.003 c -0.85211,0.003 -2.50218,0.003 -3.44141,-9.5e-4 z"
   id="path122"
   inkscape:connector-curvature="0" /><path
   style="fill:#ffffff;stroke-width:0.00390625"
   d=""
   id="path124"
   inkscape:connector-curvature="0" /><path
   style="fill:#ffffff;stroke-width:0.00390625"
   d="m 765.91213,441.41328 c 0.003,-0.003 2.52339,-0.002 2.52599,1.5e-4 10e-4,10e-4 -0.56733,0.002 -1.26307,0.002 -0.69573,0 -1.26405,-9.3e-4 -1.26292,-0.002 z"
   id="path126"
   inkscape:connector-curvature="0" /><path
   style="fill:#ffffff;stroke-width:0.00390625"
   d="m 752.5536,441.4053 c 0,-0.008 0.002,-0.008 2.70996,-0.007 1.49048,3.6e-4 2.70293,10e-4 2.69434,0.002 -0.0234,0.002 -0.0296,0.006 -0.0156,0.009 0.006,0.002 -1.20337,0.003 -2.68848,0.003 -2.69775,4.6e-4 -2.7002,4.6e-4 -2.7002,-0.007 z"
   id="path128"
   inkscape:connector-curvature="0" /><path
   style="fill:#ffffff;stroke-width:0.00390625"
   d="m 755.36415,440.50689 c 1.54688,-10e-4 3.14033,-10e-4 3.54102,10e-6 0.40068,0.001 -0.86495,0.002 -2.8125,0.002 h -3.54102 z"
   id="path130"
   inkscape:connector-curvature="0" /><path
   style="fill:#ffffff;stroke-width:0.00390625"
   d="m 752.5536,440.95218 v -0.44141 h 4.06446 4.06445 v 0.44141 0.4414 h -4.06445 -4.06446 z"
   id="path132"
   inkscape:connector-curvature="0" /><path
   style="fill:#ffffff;stroke-width:0.00390625"
   d="m 752.5536,440.95218 v -0.44141 h 4.06446 4.06445 v 0.44141 0.4414 h -4.06445 -4.06446 z"
   id="path134"
   inkscape:connector-curvature="0" /><path
   style="fill:#ffffff;stroke-width:0.00390625"
   d="m 752.5536,440.95218 v -0.44141 h 4.06446 4.06445 v 0.44141 0.4414 h -4.06445 -4.06446 z"
   id="path136"
   inkscape:connector-curvature="0" /><path
   style="fill:#ffffff;stroke-width:0.00390625"
   d="m 747.8661,442.10647 v -0.68945 h 4.06446 4.06445 v 0.68945 0.68946 h -4.06445 -4.06446 z"
   id="path138"
   inkscape:connector-curvature="0" /><path
   style="fill:#ffffff;stroke-width:0.00390625"
   d="m 747.8661,441.4053 c 0,-0.008 0.002,-0.008 2.3584,-0.007 1.29712,3.6e-4 2.35181,10e-4 2.34375,0.002 -0.0206,0.002 -0.0182,0.008 0.004,0.01 0.0102,8.1e-4 -1.04448,0.002 -2.34375,0.002 -2.35994,7e-4 -2.36231,7e-4 -2.36231,-0.007 z"
   id="path140"
   inkscape:connector-curvature="0" /><path
   style="fill:#ffffff;stroke-width:0.00390625"
   d="m 747.8661,440.95218 v -0.44141 h 4.06446 4.06445 v 0.44141 0.4414 h -4.06445 -4.06446 z"
   id="path142"
   inkscape:connector-curvature="0" /><path
   style="fill:#ffffff;stroke-width:0.00390625"
   d="m 749.24599,440.50784 c 0.76001,-5.4e-4 2.00366,-5.4e-4 2.76367,0 0.76001,5.4e-4 0.13818,9.9e-4 -1.38184,9.9e-4 -1.52002,0 -2.14184,-4.5e-4 -1.38183,-9.9e-4 z"
   id="path144"
   inkscape:connector-curvature="0" /><path
   style="fill:#ffffff;stroke-width:0.00390625"
   d="m 749.85145,440.50784 c 0.42701,-5.5e-4 1.12574,-5.5e-4 1.55274,0 0.427,5.5e-4 0.0776,0.001 -0.77637,0.001 -0.854,0 -1.20337,-4.5e-4 -0.77637,-0.001 z"
   id="path146"
   inkscape:connector-curvature="0" /><path
   style="fill:#ffffff;stroke-width:0.00390625"
   d="m 747.8661,440.95218 v -0.44141 h 4.06446 4.06445 v 0.44141 0.4414 h -4.06445 -4.06446 z"
   id="path148"
   inkscape:connector-curvature="0" /><path
   style="fill:#ffffff;stroke-width:0.00390625"
   d="m 747.8661,440.95218 v -0.44141 h 4.06446 4.06445 v 0.44141 0.4414 h -4.06445 -4.06446 z"
   id="path150"
   inkscape:connector-curvature="0" /><path
   style="fill:#ffffff;stroke-width:0.00390625"
   d="m 747.8661,440.95218 v -0.44141 h 4.06446 4.06445 v 0.44141 0.4414 h -4.06445 -4.06446 z"
   id="path152"
   inkscape:connector-curvature="0" /><path
   style="fill:#ffffff;stroke-width:0.00390625"
   d="m 747.8661,440.95218 v -0.44141 h 4.06446 4.06445 v 0.44141 0.4414 h -4.06445 -4.06446 z"
   id="path154"
   inkscape:connector-curvature="0" /><path
   style="fill:#ffffff;stroke-width:0.00390625"
   d="m 747.8661,440.95218 v -0.44141 h 4.06446 4.06445 v 0.44141 0.4414 h -4.06445 -4.06446 z"
   id="path156"
   inkscape:connector-curvature="0" /><path
   style="fill:#ffffff;stroke-width:0.00390625"
   d="m 747.8661,440.95218 v -0.44141 h 4.06446 4.06445 v 0.44141 0.4414 h -4.06445 -4.06446 z"
   id="path158"
   inkscape:connector-curvature="0" /><path
   style="fill:#ffffff;stroke-width:0.00390625"
   d="m 747.8661,440.95218 v -0.44141 h 4.06446 4.06445 v 0.44141 0.4414 h -4.06445 -4.06446 z"
   id="path160"
   inkscape:connector-curvature="0" /><path
   style="fill:#ffffff;stroke-width:0.00390625"
   d="m 743.4911,441.4053 c 0,-0.008 0.002,-0.008 2.2002,-0.007 1.21011,3.4e-4 2.19448,10e-4 2.1875,0.002 -0.0172,0.002 -0.0161,0.008 0.002,0.01 0.008,8.4e-4 -0.97632,0.002 -2.1875,0.002 -2.19976,6.5e-4 -2.20215,6.5e-4 -2.20215,-0.007 z"
   id="path162"
   inkscape:connector-curvature="0" /><path
   style="fill:#ffffff;stroke-width:0.03125"
   d="m 707.53326,440.94757 v -0.4375 h 13.8125 13.8125 v 0.4375 0.4375 h -13.8125 -13.8125 z"
   id="path164"
   inkscape:connector-curvature="0" /><path
   style="fill:#ffffff;stroke-width:0.03125"
   d="M 608.7832 440.50977 L 608.7832 440.94727 L 608.7832 441.38477 L 628.7832 441.38477 L 648.7832 441.38477 L 668.7832 441.38477 L 688.7832 441.38477 L 698.1582 441.38477 L 707.5332 441.38477 L 707.5332 440.94727 L 707.5332 440.50977 L 698.1582 440.50977 L 688.7832 440.50977 L 668.7832 440.50977 L 648.7832 440.50977 L 628.7832 440.50977 L 608.7832 440.50977 z "
   id="path166" /><path
   style="fill:#ffffff;stroke-width:0.0625"
   d="m 494.01168,440.97166 v -0.4375 h 57.375 57.375 v 0.4375 0.4375 h -57.375 -57.375 z"
   id="path174"
   inkscape:connector-curvature="0" /><path
   style="fill:#ffffff;stroke-width:0.03125"
   d="m 470.12064,734.84421 v -18.10938 h 0.5 0.5 v 18.10938 18.10937 h -0.5 -0.5 z"
   id="path176"
   inkscape:connector-curvature="0" /><path
   style="fill:#ffffff;stroke-width:0.03125"
   d="m 470.12064,707.98483 v -8.75 h 0.5 0.5 v 8.75 8.75 h -0.5 -0.5 z"
   id="path178"
   inkscape:connector-curvature="0" /><path
   style="fill:#ffffff;stroke-width:0.03125"
   d="M 470.12109 694.82812 L 470.12109 697.03125 L 470.12109 699.23438 L 470.62109 699.23438 L 471.12109 699.23438 L 471.12109 697.65625 L 471.12109 696.07812 L 493.96484 696.07812 L 516.80859 696.07812 L 530.55859 696.07812 L 544.30859 696.07812 L 558.05859 696.07812 L 571.80859 696.07812 L 574.27734 696.07812 L 588.05859 696.07812 L 605.54297 696.07812 L 620.55859 696.07812 L 636.80859 696.07812 L 653.05859 696.07812 L 669.30859 696.07812 L 683.05859 696.07812 L 696.80859 696.07812 L 710.55859 696.07812 L 724.30859 696.07812 L 739.30859 696.07812 L 754.30859 696.07812 L 769.30859 696.07812 L 784.30859 696.07812 L 799.30859 696.07812 L 814.30859 696.07812 L 829.30859 696.07812 L 844.30859 696.07812 L 859.30859 696.07812 L 874.30859 696.07812 L 891.80859 696.07812 L 909.30859 696.07812 L 924.30859 696.07812 L 939.30859 696.07812 L 953.05859 696.07812 L 966.80859 696.07812 L 978.14453 696.08594 L 989.48047 696.09375 L 989.48828 705.78906 L 989.49609 715.48438 L 989.74609 715.48438 L 989.99609 715.48438 L 989.99609 705.15625 L 989.99609 694.82812 L 978.40234 694.82812 L 966.80859 694.82812 L 953.05859 694.82812 L 939.30859 694.82812 L 924.30859 694.82812 L 909.30859 694.82812 L 891.80859 694.82812 L 874.30859 694.82812 L 859.30859 694.82812 L 844.30859 694.82812 L 829.30859 694.82812 L 814.30859 694.82812 L 799.30859 694.82812 L 784.30859 694.82812 L 769.30859 694.82812 L 754.30859 694.82812 L 739.30859 694.82812 L 724.30859 694.82812 L 710.55859 694.82812 L 696.80859 694.82812 L 683.05859 694.82812 L 669.30859 694.82812 L 653.05859 694.82812 L 636.80859 694.82812 L 620.55859 694.82812 L 605.54297 694.82812 L 588.05859 694.82812 L 574.27734 694.82812 L 571.80859 694.82812 L 558.05859 694.82812 L 544.30859 694.82812 L 530.55859 694.82812 L 516.80859 694.82812 L 493.46484 694.82812 L 470.12109 694.82812 z "
   id="path180" /><path
   style="fill:#ffffff;stroke-width:0.03125"
   d="m 989.49563,722.35983 v -6.875 h 0.25 0.25 v 6.875 6.875 h -0.25 -0.25 z"
   id="path233"
   inkscape:connector-curvature="0" /><path
   style="fill:#ffffff;stroke-width:0.03125"
   d="m 989.49563,737.98483 v -8.75 h 0.25 0.25 v 8.75 8.75 h -0.25 -0.25 z"
   id="path235"
   inkscape:connector-curvature="0" /><path
   style="fill:#ffffff;stroke-width:0.03125"
   d="m 989.49563,761.71921 v -14.98438 h 0.25 0.25 v 14.98438 14.98437 h -0.25 -0.25 z"
   id="path237"
   inkscape:connector-curvature="0" /><path
   style="fill:#ffffff;stroke-width:0.03125"
   d="m 989.49563,791.70358 v -15 h 0.25 0.25 v 15 15 h -0.25 -0.25 z"
   id="path239"
   inkscape:connector-curvature="0" /><path
   style="fill:#ffffff;stroke-width:0.03125"
   d="M 989.49609 806.70312 L 989.49609 809.82812 L 989.49609 812.95312 L 979.38672 812.95312 L 969.27734 812.95312 L 954.30859 812.95312 L 936.77734 812.95312 L 925.54297 812.95312 L 924.30859 812.95312 L 896.77734 812.95312 L 895.54297 812.95312 L 866.77734 812.95312 L 850.52734 812.95312 L 834.27734 812.95312 L 818.02734 812.95312 L 801.77734 812.95312 L 790.52734 812.95312 L 779.27734 812.95312 L 763.02734 812.95312 L 746.77734 812.95312 L 731.77734 812.95312 L 716.77734 812.95312 L 700.52734 812.95312 L 684.27734 812.95312 L 670.52734 812.95312 L 656.77734 812.95312 L 641.77734 812.95312 L 626.77734 812.95312 L 611.77734 812.95312 L 596.77734 812.95312 L 580.52734 812.95312 L 564.27734 812.95312 L 551.77734 812.95312 L 539.27734 812.95312 L 523.02734 812.95312 L 506.77734 812.95312 L 506.77734 813.42188 L 506.77734 813.89062 L 523.02734 813.89062 L 539.27734 813.89062 L 551.77734 813.89062 L 564.27734 813.89062 L 580.52734 813.89062 L 596.77734 813.89062 L 611.77734 813.89062 L 626.77734 813.89062 L 641.77734 813.89062 L 656.77734 813.89062 L 670.52734 813.89062 L 684.27734 813.89062 L 700.52734 813.89062 L 716.77734 813.89062 L 731.77734 813.89062 L 746.77734 813.89062 L 763.02734 813.89062 L 779.27734 813.89062 L 790.52734 813.89062 L 801.77734 813.89062 L 818.02734 813.89062 L 834.27734 813.89062 L 850.52734 813.89062 L 866.77734 813.89062 L 895.54297 813.89062 L 896.77734 813.89062 L 924.30859 813.89062 L 925.54297 813.89062 L 936.77734 813.89062 L 954.30859 813.89062 L 969.27734 813.89062 L 979.63672 813.89062 L 989.99609 813.89062 L 989.99609 810.29688 L 989.99609 806.70312 L 989.74609 806.70312 L 989.49609 806.70312 z "
   id="path241" /><path
   style="fill:#ffffff;stroke-width:0.03125"
   d="m 470.12064,803.43796 v -10.45313 h 0.5 0.5 v 9.98438 9.98437 h 17.82812 17.82812 v 0.46875 0.46875 h -18.32812 -18.32812 z"
   id="path300"
   inkscape:connector-curvature="0" /><path
   style="fill:#ffffff;stroke-width:0.03125"
   d="m 470.12064,782.98483 v -10 h 0.5 0.5 v 10 10 h -0.5 -0.5 z"
   id="path302"
   inkscape:connector-curvature="0" /><path
   style="fill:#ffffff;stroke-width:0.03125"
   d="m 470.12064,762.96921 v -10.01563 h 0.5 0.5 v 10.01563 10.01562 h -0.5 -0.5 z"
   id="path304"
   inkscape:connector-curvature="0" /><path
   style="fill:#ffffff;stroke-width:0.03125"
   d="m 470.12064,738.60983 v -18.125 h 19.59375 19.59374 v 18.125 18.125 h -19.59374 -19.59375 z"
   id="path306"
   inkscape:connector-curvature="0" /><path
   style="fill:#ffffff;stroke-width:0.0625"
   d="m 470.13647,457.56644 v -17.0625 h 11.9375 11.9375 v 0.4375 0.4375 h -11.46875 -11.46875 v 16.625 16.625 h -0.46875 -0.46875 z"
   id="path308"
   inkscape:connector-curvature="0" /><path
   style="fill:#ffffff;stroke-width:0.04419417"
   d="m 470.11311,279.09467 v -25.63262 h 0.48614 0.48613 v 25.63262 25.63262 h -0.48613 -0.48614 z"
   id="path310"
   inkscape:connector-curvature="0" /><path
   style="fill:#ffffff;stroke-width:0.04419417"
   d="m 470.11311,304.94826 v -0.22097 h 0.4836 0.48359 l 0.0136,0.18783 0.0136,0.18782 27.95281,0.0222 27.95282,0.0222 -28.45,0.011 -28.45,0.011 z"
   id="path312"
   inkscape:connector-curvature="0" /><path
   style="fill:#ffffff;stroke-width:0.04419417"
   d="m 470.11311,237.55215 v -15.90991 h 0.48614 0.48613 v 15.90991 15.9099 h -0.48613 -0.48614 z"
   id="path314"
   inkscape:connector-curvature="0" /><path
   style="fill:#ffffff;stroke-width:0.04419417"
   d="m 470.11311,205.73234 v -15.9099 h 0.48614 0.48613 v 15.9099 15.9099 h -0.48613 -0.48614 z"
   id="path316"
   inkscape:connector-curvature="0" /><path
   style="fill:#ffffff;stroke-width:0.04419417"
   d="m 470.11311,210.12966 v -20.30722 h 0.48614 0.48613 v 20.30722 20.30723 h -0.48613 -0.48614 z"
   id="path318"
   inkscape:connector-curvature="0" /><path
   style="fill:#ffffff;stroke-width:0.04419417"
   d="m 470.11311,187.96628 v -1.85615 h 28.43895 28.43895 v 0.30936 0.30936 H 499.0382 471.08538 v 1.54679 1.5468 h -0.48613 -0.48614 z"
   id="path320"
   inkscape:connector-curvature="0" /><path
   style="fill:#ffffff;stroke-width:0.04419417"
   d="m 526.99101,186.41949 v -0.30936 h 31.81981 31.8198 v 0.30936 0.30936 h -31.8198 -31.81981 z"
   id="path322"
   inkscape:connector-curvature="0" /><path
   style="fill:#ffffff;stroke-width:0.04419417"
   d="m 590.63062,186.41949 v -0.30936 h 31.81981 31.8198 v 0.30936 0.30936 h -31.8198 -31.81981 z"
   id="path324"
   inkscape:connector-curvature="0" /><path
   style="fill:#ffffff;stroke-width:0.04419417"
   d="m 654.27023,186.41949 v -0.30936 h 33.58757 33.58758 v 0.30936 0.30936 H 687.8578 654.27023 Z"
   id="path326"
   inkscape:connector-curvature="0" /><path
   style="fill:#ffffff;stroke-width:0.04419417"
   d="m 721.44538,186.41949 v -0.30936 h 24.74873 24.74874 v 0.30936 0.30936 h -24.74874 -24.74873 z"
   id="path328"
   inkscape:connector-curvature="0" /><path
   style="fill:#ffffff;stroke-width:0.04419417"
   d="m 770.94285,186.41949 v -0.30936 h 26.51651 26.5165 v 0.30936 0.30936 h -26.5165 -26.51651 z"
   id="path330"
   inkscape:connector-curvature="0" /><path
   style="fill:#ffffff;stroke-width:0.04419417"
   d="m 840.13008,186.41881 v -0.30936 h 45.98404 45.98403 v 0.30936 0.30936 h -45.98403 -45.98404 z"
   id="path332"
   inkscape:connector-curvature="0" /><path
   style="fill:#ffffff;stroke-width:0.03125"
   d="m 823.98639,186.41162 v -0.29688 h 8.0625 8.0625 v 0.29688 0.29687 h -8.0625 -8.0625 z"
   id="path334"
   inkscape:connector-curvature="0" /><path
   style="fill:#ffffff;stroke-width:0.02209709"
   d="m 938.15674,186.41615 v -0.29831 h 22.99202 22.99202 v 0.29831 0.29831 h -22.99202 -22.99202 z"
   id="path336"
   inkscape:connector-curvature="0" /><path
   style="fill:#ffffff;stroke-width:0.02209709"
   d="m 989.46618,194.47054 v -7.75608 h -2.6627 -2.6627 v -0.29831 -0.29831 h 2.92786 2.92787 v 8.05439 8.05439 h -0.26517 -0.26516 z"
   id="path338"
   inkscape:connector-curvature="0" /><path
   style="fill:#ffffff;stroke-width:0.02209709"
   d="m 989.46618,206.65708 v -4.43046 h 0.26516 0.26517 v 4.43046 4.43047 h -0.26517 -0.26516 z"
   id="path340"
   inkscape:connector-curvature="0" /><path
   style="fill:#ffffff;stroke-width:0.02209709"
   d="m 989.46618,219.0425 v -7.95495 h 0.26516 0.26517 v 7.95495 7.95495 h -0.26517 -0.26516 z"
   id="path342"
   inkscape:connector-curvature="0" /><path
   style="fill:#ffffff;stroke-width:0.02209709"
   d="m 989.46618,234.9524 v -7.95495 h 0.26516 0.26517 v 7.95495 7.95495 h -0.26517 -0.26516 z"
   id="path344"
   inkscape:connector-curvature="0" /><path
   style="fill:#ffffff;stroke-width:0.02209709"
   d="m 989.46618,250.8623 v -7.95495 h 0.26516 0.26517 v 7.95495 7.95495 h -0.26517 -0.26516 z"
   id="path346"
   inkscape:connector-curvature="0" /><path
   style="fill:#ffffff;stroke-width:0.02209709"
   d="m 989.46618,265.88832 v -7.07107 h 0.26516 0.26517 v 7.07107 7.07107 h -0.26517 -0.26516 z"
   id="path348"
   inkscape:connector-curvature="0" /><path
   style="fill:#ffffff;stroke-width:0.02209709"
   d="m 989.46618,280.91434 v -7.95495 h 0.26516 0.26517 v 7.95495 7.95495 h -0.26517 -0.26516 z"
   id="path350"
   inkscape:connector-curvature="0" /><path
   style="fill:#ffffff;stroke-width:0.02209709"
   d="m 989.46618,296.82424 v -7.95495 h 0.26516 0.26517 v 7.95495 7.95496 h -0.26517 -0.26516 z"
   id="path352"
   inkscape:connector-curvature="0" /><path
   style="fill:#ffffff;stroke-width:0.02209709"
   d="m 954.06664,305.1438 v -0.0553 h 17.69977 17.69977 v -0.15467 -0.15468 h 0.26516 0.26517 v 0.20992 0.20992 h -17.96493 -17.96494 z"
   id="path354"
   inkscape:connector-curvature="0" /><path
   style="fill:#ffffff;stroke-width:0.02209709"
   d="m 944.35128,305.20456 c 6.32988,-0.003 16.68126,-0.003 23.00306,0 6.3218,0.003 1.14281,0.006 -11.50888,0.006 -12.65169,0 -17.82407,-0.002 -11.49418,-0.006 z"
   id="path356"
   inkscape:connector-curvature="0" /><path
   style="fill:#ffffff;stroke-width:0.02209709"
   d="m 932.85344,305.1438 v -0.0553 h 10.6066 10.6066 v 0.0553 0.0552 h -10.6066 -10.6066 z"
   id="path360"
   inkscape:connector-curvature="0" /></svg>